<svg width="20" height="20" viewBox="0 0 20 20" fill="none" xmlns="http://www.w3.org/2000/svg">
<g clip-path="url(#clip0_445_741)">
<path d="M9.9992 14.9999V4.16661M9.9992 14.9999C9.99969 15.4556 10.0936 15.9063 10.2751 16.3242C10.4566 16.7421 10.7218 17.1184 11.0544 17.4297C11.387 17.7411 11.7799 17.981 12.2089 18.1346C12.6378 18.2882 13.0937 18.3522 13.5484 18.3227C14.0031 18.2932 14.4468 18.1708 14.8524 17.9631C15.2579 17.7553 15.6165 17.4667 15.906 17.1149C16.1956 16.7631 16.41 16.3558 16.536 15.9179C16.6619 15.48 16.6968 15.021 16.6384 14.5691M9.9992 14.9999C9.99872 15.4556 9.90483 15.9063 9.72334 16.3242C9.54185 16.7421 9.27661 17.1184 8.944 17.4297C8.6114 17.7411 8.21848 17.981 7.78953 18.1346C7.36057 18.2882 6.90468 18.3522 6.45002 18.3227C5.99535 18.2932 5.55156 18.1708 5.14605 17.9631C4.74055 17.7553 4.38193 17.4667 4.09236 17.1149C3.80278 16.7631 3.5884 16.3558 3.46244 15.9179C3.33649 15.48 3.30163 15.021 3.36004 14.5691M9.9992 4.16661C9.99919 3.78313 10.0874 3.40479 10.257 3.06085C10.4266 2.71692 10.673 2.41661 10.9773 2.18315C11.2815 1.9497 11.6353 1.78936 12.0115 1.71454C12.3876 1.63973 12.7758 1.65244 13.1463 1.75169C13.5167 1.85094 13.8593 2.03408 14.1476 2.28693C14.4359 2.53978 14.6622 2.85557 14.8089 3.20986C14.9557 3.56415 15.0189 3.94745 14.9938 4.33011C14.9687 4.71277 14.856 5.08452 14.6642 5.41661M9.9992 4.16661C9.99922 3.78313 9.91102 3.40479 9.74142 3.06085C9.57182 2.71692 9.32538 2.41661 9.02115 2.18315C8.71692 1.9497 8.36306 1.78936 7.98695 1.71454C7.61084 1.63973 7.22256 1.65244 6.85215 1.75169C6.48174 1.85094 6.13912 2.03408 5.85081 2.28693C5.5625 2.53978 5.33622 2.85557 5.18948 3.20986C5.04274 3.56415 4.97947 3.94745 5.00456 4.33011C5.02966 4.71277 5.14245 5.08452 5.3342 5.41661M12.4992 10.8333C11.7782 10.6225 11.1449 10.1838 10.6942 9.58286C10.2435 8.98193 9.99965 8.25112 9.9992 7.49995C9.99875 8.25112 9.75491 8.98193 9.3042 9.58286C8.8535 10.1838 8.2202 10.6225 7.4992 10.8333M14.9967 4.27078C15.4865 4.39673 15.9413 4.63249 16.3265 4.96021C16.7117 5.28793 17.0173 5.69901 17.2202 6.16232C17.423 6.62563 17.5177 7.12903 17.4972 7.63438C17.4767 8.13972 17.3414 8.63378 17.1017 9.07912M14.9992 14.9999C15.733 14.9999 16.4462 14.7578 17.0283 14.3111C17.6104 13.8644 18.0289 13.2381 18.2188 12.5294C18.4087 11.8206 18.3595 11.069 18.0787 10.3911C17.7979 9.71318 17.3013 9.14686 16.6659 8.77995M4.9992 14.9999C4.26545 14.9999 3.55221 14.7578 2.97009 14.3111C2.38797 13.8644 1.96951 13.2381 1.7796 12.5294C1.58969 11.8206 1.63894 11.069 1.91972 10.3911C2.20049 9.71318 2.69711 9.14686 3.33254 8.77995M5.0017 4.27078C4.51187 4.39673 4.05712 4.63249 3.6719 4.96021C3.28667 5.28793 2.98107 5.69901 2.77824 6.16232C2.57541 6.62563 2.48067 7.12903 2.50119 7.63438C2.52172 8.13972 2.65697 8.63378 2.8967 9.07912" stroke="black" stroke-width="1.5" stroke-linecap="round" stroke-linejoin="round"/>
</g>
<defs>
<clipPath id="clip0_445_741">
<rect width="20" height="20" fill="white"/>
</clipPath>
</defs>
</svg>
