<svg width="40" height="40" viewBox="0 0 40 40" fill="none" xmlns="http://www.w3.org/2000/svg">
<path d="M15 8.33333V15M15 25V28.3333M28.3333 5V8.33333M28.3333 21.6667V26.6667M5 5V31.6667C5 32.5507 5.35119 33.3986 5.97631 34.0237C6.60143 34.6488 7.44928 35 8.33333 35H35M13.3333 15H16.6667C17.5871 15 18.3333 15.7462 18.3333 16.6667V23.3333C18.3333 24.2538 17.5871 25 16.6667 25H13.3333C12.4129 25 11.6667 24.2538 11.6667 23.3333V16.6667C11.6667 15.7462 12.4129 15 13.3333 15ZM26.6667 8.33333H30C30.9205 8.33333 31.6667 9.07953 31.6667 10V20C31.6667 20.9205 30.9205 21.6667 30 21.6667H26.6667C25.7462 21.6667 25 20.9205 25 20V10C25 9.07953 25.7462 8.33333 26.6667 8.33333Z" stroke="black" stroke-width="1.5" stroke-linecap="round" stroke-linejoin="round"/>
</svg>
