<svg width="40" height="40" viewBox="0 0 40 40" fill="none" xmlns="http://www.w3.org/2000/svg">
<path d="M26.6666 13.3334H16.6666C15.7825 13.3334 14.9347 13.6846 14.3096 14.3097C13.6844 14.9348 13.3333 15.7827 13.3333 16.6667C13.3333 17.5508 13.6844 18.3986 14.3096 19.0237C14.9347 19.6489 15.7825 20 16.6666 20H23.3333C24.2173 20 25.0652 20.3512 25.6903 20.9764C26.3154 21.6015 26.6666 22.4493 26.6666 23.3334C26.6666 24.2174 26.3154 25.0653 25.6903 25.6904C25.0652 26.3155 24.2173 26.6667 23.3333 26.6667H13.3333M19.9999 30V10M36.6666 20C36.6666 29.2048 29.2047 36.6667 19.9999 36.6667C10.7952 36.6667 3.33325 29.2048 3.33325 20C3.33325 10.7953 10.7952 3.33337 19.9999 3.33337C29.2047 3.33337 36.6666 10.7953 36.6666 20Z" stroke="black" stroke-width="1.5" stroke-linecap="round" stroke-linejoin="round"/>
</svg>
