<svg width="20" height="20" viewBox="0 0 20 20" fill="none" xmlns="http://www.w3.org/2000/svg">
<path d="M11.6677 1.6665V6.6665C11.6676 6.94607 11.7378 7.22118 11.8719 7.4665L16.4635 15.8665C16.6024 16.1203 16.6728 16.406 16.6678 16.6953C16.6628 16.9846 16.5826 17.2676 16.435 17.5165C16.2875 17.7654 16.0776 17.9716 15.8262 18.1148C15.5748 18.258 15.2904 18.3332 15.001 18.3332H5.00104C4.71168 18.3332 4.4273 18.258 4.17586 18.1148C3.92442 17.9716 3.7146 17.7654 3.56703 17.5165C3.41946 17.2676 3.33923 16.9846 3.33423 16.6953C3.32924 16.406 3.39965 16.1203 3.53854 15.8665L8.1302 7.4665C8.26428 7.22118 8.33449 6.94607 8.33437 6.6665V1.6665M5.37854 12.4998H14.6235M7.08437 1.6665H12.9177" stroke="black" stroke-width="1.5" stroke-linecap="round" stroke-linejoin="round"/>
</svg>
