<svg width="40" height="40" viewBox="0 0 40 40" fill="none" xmlns="http://www.w3.org/2000/svg">
<path d="M18.3335 28.3333L21.6668 31.6667C21.9951 31.995 22.3849 32.2554 22.8138 32.4331C23.2428 32.6107 23.7025 32.7022 24.1668 32.7022C24.6311 32.7022 25.0909 32.6107 25.5198 32.4331C25.9488 32.2554 26.3385 31.995 26.6668 31.6667C26.9951 31.3383 27.2556 30.9486 27.4332 30.5196C27.6109 30.0907 27.7024 29.6309 27.7024 29.1667C27.7024 28.7024 27.6109 28.2426 27.4332 27.8137C27.2556 27.3847 26.9951 26.995 26.6668 26.6667M23.3335 23.3333L27.5002 27.5C28.1632 28.163 29.0625 28.5355 30.0002 28.5355C30.9378 28.5355 31.8371 28.163 32.5002 27.5C33.1632 26.8369 33.5357 25.9377 33.5357 25C33.5357 24.0623 33.1632 23.163 32.5002 22.5L26.0335 16.0333C25.096 15.097 23.8252 14.5711 22.5002 14.5711C21.1752 14.5711 19.9043 15.097 18.9668 16.0333L17.5002 17.5C16.8371 18.163 15.9378 18.5355 15.0002 18.5355C14.0625 18.5355 13.1632 18.163 12.5002 17.5C11.8371 16.8369 11.4646 15.9377 11.4646 15C11.4646 14.0623 11.8371 13.163 12.5002 12.5L17.1835 7.81665C18.7039 6.30023 20.6867 5.33424 22.8179 5.07161C24.9491 4.80897 27.1071 5.2647 28.9502 6.36665L29.7335 6.83332C30.4431 7.26163 31.2869 7.41018 32.1002 7.24998L35.0002 6.66665M35.0002 4.99998L36.6668 23.3333H33.3335M5.00016 4.99998L3.3335 23.3333L14.1668 34.1667C14.8299 34.8297 15.7291 35.2022 16.6668 35.2022C17.6045 35.2022 18.5038 34.8297 19.1668 34.1667C19.8299 33.5036 20.2024 32.6043 20.2024 31.6667C20.2024 30.729 19.8299 29.8297 19.1668 29.1667M5.00016 6.66665H18.3335" stroke="black" stroke-width="1.5" stroke-linecap="round" stroke-linejoin="round"/>
</svg>
