<svg width="22" height="21" viewBox="0 0 22 21" fill="none" xmlns="http://www.w3.org/2000/svg">
<path d="M19.2397 5.097C18.5953 5.37478 17.9286 5.55812 17.2397 5.647C17.5953 5.42478 17.9064 5.147 18.1731 4.81367C18.4397 4.48034 18.6342 4.11367 18.7564 3.71367C18.0675 4.12478 17.3342 4.40812 16.5564 4.56367C16.2231 4.20812 15.8342 3.93589 15.3897 3.747C14.9453 3.55812 14.4842 3.46367 14.0064 3.46367C13.3731 3.46367 12.7897 3.61923 12.2564 3.93034C11.7231 4.24145 11.3009 4.66367 10.9897 5.197C10.6786 5.73034 10.5231 6.31367 10.5231 6.947C10.5231 7.21367 10.5509 7.48034 10.6064 7.747C9.18419 7.66923 7.83975 7.30812 6.57308 6.66367C5.35086 6.03034 4.30086 5.17478 3.42308 4.097C3.11197 4.64145 2.95641 5.22478 2.95641 5.847C2.95641 6.447 3.0953 7.00256 3.37308 7.51367C3.65086 8.02478 4.02864 8.43589 4.50641 8.747C3.95086 8.73589 3.42308 8.59145 2.92308 8.31367V8.36367C2.92308 8.91923 3.0453 9.43589 3.28975 9.91367C3.53419 10.3914 3.8703 10.7942 4.29808 11.122C4.72586 11.4498 5.20086 11.6692 5.72308 11.7803C5.42308 11.8581 5.11752 11.897 4.80641 11.897C4.58419 11.897 4.36752 11.8748 4.15641 11.8303C4.37864 12.5303 4.78697 13.1053 5.38141 13.5553C5.97586 14.0053 6.65086 14.2414 7.40641 14.2637C6.78419 14.7414 6.10364 15.1081 5.36475 15.3637C4.62586 15.6192 3.86197 15.747 3.07308 15.747C2.7953 15.747 2.51752 15.7303 2.23975 15.697C3.03975 16.2081 3.8953 16.597 4.80641 16.8637C5.71752 17.1303 6.6453 17.2637 7.58975 17.2637C9.12308 17.2637 10.5397 16.9637 11.8397 16.3637C13.0286 15.8081 14.0675 15.0303 14.9564 14.0303C15.7786 13.097 16.412 12.0359 16.8564 10.847C17.2897 9.69145 17.5064 8.52478 17.5064 7.347C17.5064 7.20256 17.5009 7.05256 17.4897 6.89701C18.1786 6.39701 18.762 5.797 19.2397 5.097Z" fill="#9CA3AF"/>
</svg>
