<svg width="40" height="41" viewBox="0 0 40 41" fill="none" xmlns="http://www.w3.org/2000/svg">
<path d="M4.9868 27.7095C5.23187 28.3277 5.28643 29.005 5.14347 29.6545L3.36847 35.1378C3.31128 35.4159 3.32606 35.7039 3.41143 35.9747C3.49679 36.2455 3.64991 36.4899 3.85625 36.6849C4.06259 36.8799 4.31532 37.019 4.59047 37.0889C4.86562 37.1588 5.15407 37.1573 5.42847 37.0845L11.1168 35.4211C11.7297 35.2996 12.3644 35.3527 12.9485 35.5745C16.5074 37.2365 20.5391 37.5881 24.3321 36.5673C28.125 35.5465 31.4356 33.2189 33.6796 29.9951C35.9237 26.7713 36.957 22.8585 36.5973 18.947C36.2376 15.0356 34.508 11.3769 31.7136 8.61646C28.9192 5.856 25.2396 4.17119 21.3241 3.85929C17.4086 3.54739 13.5087 4.62843 10.3125 6.91169C7.11639 9.19496 4.82935 12.5337 3.85496 16.3389C2.88056 20.144 3.28142 24.1711 4.9868 27.7095Z" stroke="black" stroke-width="1.5" stroke-linecap="round" stroke-linejoin="round"/>
<path d="M13.0468 22.2561C12.1534 21.3216 11.6567 20.0772 11.661 18.7843C11.6653 17.4914 12.1703 16.2504 13.07 15.3218C13.9697 14.3932 15.1941 13.8493 16.4862 13.8041C17.7784 13.7589 19.0378 14.216 20.0001 15.0795C20.7181 14.435 21.6071 14.012 22.5601 13.8615C23.5131 13.711 24.4892 13.8394 25.3708 14.2312C26.2525 14.623 27.0019 15.2616 27.5288 16.0698C28.0556 16.878 28.3374 17.8214 28.3401 18.7861C28.3442 20.0791 27.8472 21.3234 26.9535 22.2578L21.2085 28.2911C21.0527 28.4549 20.8652 28.5853 20.6574 28.6743C20.4496 28.7634 20.2258 28.8092 19.9998 28.809C19.7737 28.8089 19.5501 28.7628 19.3424 28.6734C19.1347 28.5841 18.9474 28.4535 18.7918 28.2895L13.0468 22.2561Z" stroke="black" stroke-width="1.5" stroke-linecap="round" stroke-linejoin="round"/>
</svg>
