<svg width="56" height="56" viewBox="0 0 56 56" fill="none" xmlns="http://www.w3.org/2000/svg">
<path d="M8.16667 53.0833H47.8333C49.9993 53.0833 52.0765 52.2229 53.608 50.6913C55.1396 49.1598 56 47.0826 56 44.9166V21.5833C56 19.4174 55.1396 17.3401 53.608 15.8086C52.0765 14.277 49.9993 13.4166 47.8333 13.4166H39.0833C38.9286 13.4166 38.7803 13.3552 38.6709 13.2458C38.5615 13.1364 38.5 12.988 38.5 12.8333V9.91663C38.5 8.06011 37.7625 6.27963 36.4497 4.96688C35.137 3.65412 33.3565 2.91663 31.5 2.91663H24.5C22.6435 2.91663 20.863 3.65412 19.5503 4.96688C18.2375 6.27963 17.5 8.06011 17.5 9.91663V12.8333C17.5 12.988 17.4385 13.1364 17.3291 13.2458C17.2197 13.3552 17.0714 13.4166 16.9167 13.4166H8.16667C6.00073 13.4166 3.92351 14.277 2.39196 15.8086C0.860414 17.3401 0 19.4174 0 21.5833L0 44.9166C0 47.0826 0.860414 49.1598 2.39196 50.6913C3.92351 52.2229 6.00073 53.0833 8.16667 53.0833ZM22.1667 9.91663C22.1667 9.29779 22.4125 8.7043 22.8501 8.26671C23.2877 7.82913 23.8812 7.58329 24.5 7.58329H31.5C32.1188 7.58329 32.7123 7.82913 33.1499 8.26671C33.5875 8.7043 33.8333 9.29779 33.8333 9.91663V12.8333C33.8333 12.988 33.7719 13.1364 33.6625 13.2458C33.5531 13.3552 33.4047 13.4166 33.25 13.4166H22.75C22.5953 13.4166 22.4469 13.3552 22.3375 13.2458C22.2281 13.1364 22.1667 12.988 22.1667 12.8333V9.91663ZM30.5667 36.68L23.5667 34.1133C22.5594 33.6416 21.7177 32.8772 21.1516 31.9198C20.5855 30.9624 20.3212 29.8565 20.3933 28.7466C20.3744 27.4247 20.8377 26.1412 21.6966 25.1363C22.5556 24.1313 23.7513 23.4737 25.06 23.2866C25.1898 23.2519 25.3052 23.1765 25.3891 23.0716C25.4731 22.9666 25.5213 22.8376 25.5267 22.7033V21.5833C25.5267 20.9645 25.7725 20.371 26.2101 19.9334C26.6477 19.4958 27.2412 19.25 27.86 19.25C28.4788 19.25 29.0723 19.4958 29.5099 19.9334C29.9475 20.371 30.1933 20.9645 30.1933 21.5833V22.5633C30.1933 22.718 30.2548 22.8664 30.3642 22.9758C30.4736 23.0852 30.622 23.1466 30.7767 23.1466H33.11C33.7288 23.1466 34.3223 23.3925 34.7599 23.83C35.1975 24.2676 35.4433 24.8611 35.4433 25.48C35.4433 26.0988 35.1975 26.6923 34.7599 27.1299C34.3223 27.5675 33.7288 27.8133 33.11 27.8133H26.6933C25.1533 27.8133 25.1533 28.49 25.1533 28.7466C25.1261 29.1255 25.2245 29.5027 25.4333 29.82L32.4333 32.3866C33.4406 32.8583 34.2823 33.6227 34.8484 34.5801C35.4145 35.5375 35.6788 36.6434 35.6067 37.7533C35.6256 39.0752 35.1623 40.3587 34.3034 41.3637C33.4444 42.3686 32.2487 43.0262 30.94 43.2133C30.8102 43.248 30.6948 43.3234 30.6109 43.4283C30.5269 43.5333 30.4787 43.6623 30.4733 43.7966V44.9166C30.4733 45.5355 30.2275 46.129 29.7899 46.5665C29.3523 47.0041 28.7588 47.25 28.14 47.25C27.5212 47.25 26.9277 47.0041 26.4901 46.5665C26.0525 46.129 25.8067 45.5355 25.8067 44.9166V43.9366C25.8067 43.7819 25.7452 43.6335 25.6358 43.5242C25.5264 43.4148 25.378 43.3533 25.2233 43.3533H22.89C22.2712 43.3533 21.6777 43.1075 21.2401 42.6699C20.8025 42.2323 20.5567 41.6388 20.5567 41.02C20.5567 40.4011 20.8025 39.8076 21.2401 39.37C21.6777 38.9325 22.2712 38.6866 22.89 38.6866H29.3767C30.9167 38.6866 30.9167 38.01 30.9167 37.7533C30.9236 37.3664 30.8003 36.9884 30.5667 36.68Z" fill="#1B1B1B"/>
</svg>
