<svg width="57" height="56" viewBox="0 0 57 56" fill="none" xmlns="http://www.w3.org/2000/svg">
<path fill-rule="evenodd" clip-rule="evenodd" d="M9.75851 38.6551C13.5502 38.8628 19.6262 39.0833 28.333 39.0833C37.0398 39.0833 43.1147 38.8628 46.9075 38.6551C50.6268 38.4521 53.7325 35.7501 54.1105 31.9165C54.3637 29.3498 54.583 25.7518 54.583 21C54.583 16.2481 54.3637 12.6501 54.1105 10.0835C53.7325 6.24863 50.6268 3.54779 46.9075 3.34479C43.1158 3.13713 37.0398 2.91663 28.333 2.91663C19.6262 2.91663 13.5513 3.13713 9.75851 3.34479C6.03918 3.54779 2.93351 6.24979 2.55551 10.0835C2.30234 12.6501 2.08301 16.2481 2.08301 21C2.08301 25.7518 2.30234 29.3498 2.55551 31.9165C2.93351 35.7513 6.03918 38.4521 9.75851 38.6551ZM28.333 9.86413C28.7971 9.86413 29.2423 10.0485 29.5704 10.3767C29.8986 10.7049 30.083 11.15 30.083 11.6141V12.684C30.886 12.8281 31.6694 13.0654 32.4175 13.391C32.9938 13.643 33.5597 13.9358 34.0613 14.3173C34.8127 14.8913 34.9643 16.0206 34.3892 16.772C34.1086 17.1386 33.6946 17.3794 33.2372 17.4422C32.7798 17.5049 32.3162 17.3843 31.9473 17.1068C30.9242 16.3625 29.5907 16.0311 28.333 16.0311C27.4942 16.0311 26.6775 16.2925 26.1093 16.6798C25.5272 17.0753 25.4163 17.4335 25.4163 17.6131C25.4163 18.0343 25.5983 18.2606 25.9612 18.4578C26.6798 18.8486 27.5257 19.0108 28.3377 19.166L28.8078 19.2581C29.8812 19.4763 31.2695 19.7586 32.3778 20.3618C33.8502 21.1633 34.7497 22.5901 34.7497 24.2806C34.7497 26.005 33.6938 27.314 32.526 28.1073C31.7825 28.6041 30.9546 28.9612 30.083 29.1608V30.2808C30.083 30.7449 29.8986 31.19 29.5704 31.5182C29.2423 31.8464 28.7971 32.0308 28.333 32.0308C27.8689 32.0308 27.4238 31.8464 27.0956 31.5182C26.7674 31.19 26.583 30.7449 26.583 30.2808V29.2098C25.1947 28.9636 23.734 28.4398 22.6023 27.5753C22.2326 27.2946 21.9895 26.8786 21.9264 26.4187C21.8634 25.9588 21.9857 25.4927 22.2663 25.123C22.547 24.7532 22.963 24.5101 23.4229 24.4471C23.8828 24.3841 24.3489 24.5063 24.7187 24.787C25.7313 25.5231 27.1033 25.8638 28.333 25.8638C29.1683 25.8638 29.9885 25.6013 30.5567 25.214C31.1388 24.8185 31.2497 24.4603 31.2497 24.2806C31.2497 23.8595 31.0677 23.6331 30.7048 23.436C29.9862 23.0451 29.1415 22.883 28.3295 22.7278L27.8582 22.6356C26.786 22.4175 25.3965 22.1351 24.2882 21.532C22.8158 20.7305 21.9163 19.3036 21.9163 17.6131C21.9163 15.8888 22.9722 14.5798 24.14 13.7865C24.8835 13.2896 25.7114 12.9326 26.583 12.733V11.6141C26.583 11.15 26.7674 10.7049 27.0956 10.3767C27.4238 10.0485 27.8689 9.86413 28.333 9.86413ZM43.4997 18.6141C42.8808 18.6141 42.2873 18.86 41.8498 19.2975C41.4122 19.7351 41.1663 20.3286 41.1663 20.9475C41.1663 21.5663 41.4122 22.1598 41.8498 22.5974C42.2873 23.035 42.8808 23.2808 43.4997 23.2808H44.6663C45.2852 23.2808 45.8787 23.035 46.3163 22.5974C46.7538 22.1598 46.9997 21.5663 46.9997 20.9475C46.9997 20.3286 46.7538 19.7351 46.3163 19.2975C45.8787 18.86 45.2852 18.6141 44.6663 18.6141H43.4997ZM9.66634 20.9475C9.66634 20.3286 9.91217 19.7351 10.3498 19.2975C10.7873 18.86 11.3808 18.6141 11.9997 18.6141H13.1663C13.7852 18.6141 14.3787 18.86 14.8163 19.2975C15.2538 19.7351 15.4997 20.3286 15.4997 20.9475C15.4997 21.5663 15.2538 22.1598 14.8163 22.5974C14.3787 23.035 13.7852 23.2808 13.1663 23.2808H11.9997C11.3808 23.2808 10.7873 23.035 10.3498 22.5974C9.91217 22.1598 9.66634 21.5663 9.66634 20.9475ZM13.9072 49.7875C14.0025 49.5783 14.138 49.39 14.3061 49.2333C14.4742 49.0765 14.6715 48.9544 14.8867 48.8739C15.102 48.7934 15.331 48.7561 15.5607 48.7641C15.7904 48.7721 16.0162 48.8253 16.2253 48.9206C16.6943 49.1341 17.2252 49.2683 17.8003 49.2975C20.2678 49.4223 23.7387 49.532 28.333 49.532C32.9273 49.532 36.3993 49.4223 38.8668 49.2975C39.442 49.2683 39.9717 49.1341 40.4418 48.9206C40.8629 48.7365 41.3395 48.7255 41.7687 48.8898C42.1978 49.0541 42.5451 49.3807 42.7356 49.7989C42.926 50.2171 42.9443 50.6935 42.7864 51.1251C42.6286 51.5567 42.3073 51.9089 41.892 52.1056C40.9946 52.5125 40.0284 52.7461 39.0442 52.794C36.5125 52.9223 32.9833 53.032 28.3342 53.032C23.6838 53.032 20.1535 52.9211 17.6242 52.7928C16.6397 52.7454 15.673 52.5123 14.7752 52.1056C14.5659 52.0104 14.3775 51.875 14.2206 51.7069C14.0638 51.5389 13.9415 51.3416 13.8609 51.1264C13.7803 50.9111 13.7429 50.682 13.7509 50.4523C13.7588 50.2226 13.8119 49.9967 13.9072 49.7875ZM8.78201 42.021C9.0346 41.6318 9.43137 41.3589 9.8851 41.2622C10.3388 41.1655 10.8124 41.253 11.2017 41.5053C11.8383 41.912 12.5704 42.1445 13.325 42.1796C16.5438 42.3558 21.4672 42.5296 28.333 42.5296C35.1988 42.5296 40.1222 42.3558 43.341 42.1796C44.0956 42.1445 44.8278 41.912 45.4643 41.5053C45.8537 41.2594 46.3243 41.1769 46.7741 41.2756C47.2239 41.3744 47.6166 41.6465 47.8671 42.0329C48.1177 42.4193 48.2058 42.8888 48.1124 43.3398C48.0191 43.7907 47.7517 44.1867 47.3683 44.4418C46.2194 45.181 44.8968 45.6062 43.5323 45.675C40.2458 45.8546 35.2583 46.0308 28.333 46.0308C21.4077 46.0308 16.4213 45.8546 13.1337 45.675C11.7692 45.6062 10.4466 45.181 9.29767 44.4418C9.10484 44.3167 8.93854 44.1549 8.80826 43.9655C8.67798 43.7762 8.58628 43.563 8.53839 43.3382C8.49051 43.1134 8.48737 42.8814 8.52917 42.6553C8.57097 42.4293 8.65689 42.2138 8.78201 42.021Z" fill="#1B1B1B"/>
</svg>
