<svg width="57" height="56" viewBox="0 0 57 56" fill="none" xmlns="http://www.w3.org/2000/svg">
<g clip-path="url(#clip0_473_58)">
<path fill-rule="evenodd" clip-rule="evenodd" d="M0.333008 5.8C0.333008 2.5 3.11701 0 6.33301 0H50.333C53.549 0 56.333 2.5 56.333 5.8V28.2C56.333 31.5 53.549 34 50.333 34H6.33301C3.11701 34 0.333008 31.5 0.333008 28.2V5.8ZM36.333 17C36.333 19.1217 35.4902 21.1566 33.9899 22.6569C32.4896 24.1571 30.4547 25 28.333 25C26.2113 25 24.1764 24.1571 22.6762 22.6569C21.1759 21.1566 20.333 19.1217 20.333 17C20.333 14.8783 21.1759 12.8434 22.6762 11.3431C24.1764 9.84285 26.2113 9 28.333 9C30.4547 9 32.4896 9.84285 33.9899 11.3431C35.4902 12.8434 36.333 14.8783 36.333 17ZM14.333 18C14.333 17.606 14.2554 17.2159 14.1046 16.8519C13.9539 16.488 13.7329 16.1573 13.4543 15.8787C13.1758 15.6001 12.845 15.3791 12.4811 15.2284C12.1171 15.0776 11.727 15 11.333 15C10.939 15 10.5489 15.0776 10.185 15.2284C9.82098 15.3791 9.49026 15.6001 9.21169 15.8787C8.93311 16.1573 8.71213 16.488 8.56137 16.8519C8.4106 17.2159 8.33301 17.606 8.33301 18C8.33301 18.7956 8.64908 19.5587 9.21169 20.1213C9.7743 20.6839 10.5374 21 11.333 21C12.1287 21 12.8917 20.6839 13.4543 20.1213C14.0169 19.5587 14.333 18.7956 14.333 18ZM45.333 15C46.1287 15 46.8917 15.3161 47.4543 15.8787C48.0169 16.4413 48.333 17.2044 48.333 18C48.333 18.7956 48.0169 19.5587 47.4543 20.1213C46.8917 20.6839 46.1287 21 45.333 21C44.5374 21 43.7743 20.6839 43.2117 20.1213C42.6491 19.5587 42.333 18.7956 42.333 18C42.333 17.2044 42.6491 16.4413 43.2117 15.8787C43.7743 15.3161 44.5374 15 45.333 15ZM20.833 42C20.833 41.337 20.5696 40.7011 20.1008 40.2322C19.6319 39.7634 18.996 39.5 18.333 39.5C17.67 39.5 17.0341 39.7634 16.5652 40.2322C16.0964 40.7011 15.833 41.337 15.833 42V50C15.833 50.663 16.0964 51.2989 16.5652 51.7678C17.0341 52.2366 17.67 52.5 18.333 52.5C18.996 52.5 19.6319 52.2366 20.1008 51.7678C20.5696 51.2989 20.833 50.663 20.833 50V42ZM38.333 39.5C39.713 39.5 40.833 40.62 40.833 42V50C40.833 50.3283 40.7683 50.6534 40.6427 50.9567C40.5171 51.26 40.3329 51.5356 40.1008 51.7678C39.8686 51.9999 39.593 52.1841 39.2897 52.3097C38.9864 52.4353 38.6613 52.5 38.333 52.5C38.0047 52.5 37.6796 52.4353 37.3763 52.3097C37.073 52.1841 36.7974 51.9999 36.5652 51.7678C36.3331 51.5356 36.1489 51.26 36.0233 50.9567C35.8977 50.6534 35.833 50.3283 35.833 50V42C35.833 40.62 36.953 39.5 38.333 39.5ZM28.333 42.5C29.713 42.5 30.833 43.62 30.833 45V53C30.833 53.663 30.5696 54.2989 30.1008 54.7678C29.6319 55.2366 28.996 55.5 28.333 55.5C27.67 55.5 27.0341 55.2366 26.5652 54.7678C26.0964 54.2989 25.833 53.663 25.833 53V45C25.833 43.62 26.953 42.5 28.333 42.5Z" fill="#1B1B1B"/>
</g>
<defs>
<clipPath id="clip0_473_58">
<rect width="56" height="56" fill="white" transform="translate(0.333008)"/>
</clipPath>
</defs>
</svg>
