<svg width="57" height="56" viewBox="0 0 57 56" fill="none" xmlns="http://www.w3.org/2000/svg">
<g clip-path="url(#clip0_473_63)">
<path d="M28.247 18.0833H34.5003C35.2739 18.0833 36.0157 17.776 36.5627 17.229C37.1097 16.682 37.417 15.9402 37.417 15.1666C37.417 14.3931 37.1097 13.6512 36.5627 13.1042C36.0157 12.5572 35.2739 12.25 34.5003 12.25H32.167C32.0123 12.25 31.8639 12.1885 31.7545 12.0791C31.6451 11.9697 31.5837 11.8213 31.5837 11.6666V10.78C31.5837 10.0064 31.2764 9.26454 30.7294 8.71756C30.1824 8.17058 29.4405 7.86329 28.667 7.86329C27.8934 7.86329 27.1516 8.17058 26.6046 8.71756C26.0576 9.26454 25.7503 10.0064 25.7503 10.78V12.2033C25.7474 12.3224 25.7108 12.4382 25.6447 12.5373C25.5786 12.6364 25.4858 12.7148 25.377 12.7633C23.8595 13.3278 22.5393 14.3223 21.5781 15.6252C20.6168 16.9281 20.0561 18.4829 19.9645 20.0994C19.8729 21.7159 20.2544 23.3241 21.0623 24.7272C21.8703 26.1304 23.0696 27.2677 24.5137 28L30.207 30.8466C30.6785 31.1137 31.0504 31.5269 31.2664 32.0239C31.4824 32.521 31.5308 33.0748 31.4043 33.6017C31.2779 34.1287 30.9834 34.6002 30.5653 34.945C30.1473 35.2899 29.6284 35.4893 29.087 35.5133H22.8337C22.0601 35.5133 21.3182 35.8206 20.7713 36.3676C20.2243 36.9145 19.917 37.6564 19.917 38.43C19.917 39.2035 20.2243 39.9454 20.7713 40.4923C21.3182 41.0393 22.0601 41.3466 22.8337 41.3466H25.167C25.3217 41.3466 25.4701 41.4081 25.5795 41.5175C25.6889 41.6269 25.7503 41.7752 25.7503 41.93V42.8166C25.7503 43.5902 26.0576 44.332 26.6046 44.879C27.1516 45.426 27.8934 45.7333 28.667 45.7333C29.4405 45.7333 30.1824 45.426 30.7294 44.879C31.2764 44.332 31.5837 43.5902 31.5837 42.8166V41.3933C31.5866 41.2742 31.6232 41.1584 31.6893 41.0593C31.7554 40.9601 31.8482 40.8818 31.957 40.8333C33.4551 40.2588 34.7554 39.2639 35.7016 37.9681C36.6478 36.6723 37.1997 35.1309 37.2908 33.529C37.382 31.9271 37.0086 30.333 36.2156 28.9382C35.4225 27.5435 34.2435 26.4074 32.8203 25.6666L27.127 22.7966C26.6554 22.5296 26.2836 22.1163 26.0676 21.6193C25.8516 21.1223 25.8032 20.5685 25.9296 20.0415C26.0561 19.5146 26.3506 19.0431 26.7687 18.6982C27.1867 18.3534 27.7056 18.1539 28.247 18.13V18.0833ZM42.107 16.9166C42.7191 16.914 43.3057 16.671 43.7403 16.24L48.407 11.5733C48.4792 11.4945 48.5733 11.4391 48.6773 11.4142C48.7812 11.3892 48.8902 11.3959 48.9903 11.4333C49.5505 11.6016 50.1321 11.6881 50.717 11.69C51.8744 11.7131 53.0125 11.3913 53.9865 10.7656C54.9605 10.1399 55.7263 9.23857 56.1864 8.17628C56.6465 7.114 56.7802 5.93884 56.5703 4.80037C56.3605 3.6619 55.8166 2.61162 55.008 1.78319C54.1994 0.954771 53.1625 0.38568 52.0295 0.148353C50.8964 -0.0889738 49.7184 0.0161978 48.6453 0.450481C47.5722 0.884765 46.6526 1.62852 46.0035 2.58708C45.3544 3.54564 45.0052 4.67565 45.0003 5.83329C45.0032 6.46754 45.1056 7.09742 45.3037 7.69996C45.3411 7.80008 45.3477 7.90908 45.3228 8.01301C45.2978 8.11694 45.2424 8.21105 45.1637 8.28329L40.497 12.95C40.1679 13.2763 39.9435 13.6933 39.8523 14.1477C39.7612 14.6021 39.8074 15.0734 39.9851 15.5014C40.1629 15.9294 40.464 16.2949 40.8502 16.5511C41.2364 16.8073 41.6902 16.9426 42.1537 16.94L42.107 16.9166ZM45.0003 50.1666C45.0003 51.3203 45.3424 52.4482 45.9834 53.4074C46.6244 54.3667 47.5354 55.1144 48.6013 55.5559C49.6672 55.9974 50.8401 56.1129 51.9717 55.8879C53.1032 55.6628 54.1426 55.1072 54.9585 54.2914C55.7743 53.4756 56.3298 52.4362 56.5549 51.3046C56.78 50.1731 56.6645 49.0002 56.223 47.9343C55.7814 46.8684 55.0338 45.9574 54.0745 45.3164C53.1152 44.6754 51.9874 44.3333 50.8337 44.3333C50.1994 44.3362 49.5695 44.4385 48.967 44.6366C48.8669 44.674 48.7579 44.6807 48.6539 44.6557C48.55 44.6308 48.4559 44.5754 48.3837 44.4966L44.207 40.2966C43.7707 39.8572 43.1778 39.6092 42.5586 39.607C41.9394 39.6048 41.3447 39.8487 40.9053 40.285C40.466 40.7212 40.2179 41.3142 40.2157 41.9334C40.2135 42.5526 40.4574 43.1472 40.8937 43.5866L45.117 47.8333C45.1952 47.9109 45.2499 48.009 45.2747 48.1164C45.2995 48.2237 45.2933 48.3359 45.257 48.44C45.0886 49.0001 45.0022 49.5817 45.0003 50.1666ZM17.0003 12.9966L12.3337 8.32996C12.2549 8.25772 12.1995 8.1636 12.1745 8.05968C12.1496 7.95575 12.1563 7.84674 12.1937 7.74662C12.3415 7.12031 12.3888 6.47446 12.3337 5.83329C12.3337 4.67857 11.9909 3.54984 11.3489 2.59005C10.7069 1.63026 9.79449 0.882613 8.72723 0.441796C7.65996 0.00097841 6.48588 -0.11317 5.35369 0.113808C4.2215 0.340786 3.18215 0.898679 2.36728 1.71682C1.55241 2.53496 0.998689 3.57654 0.77625 4.70963C0.553812 5.84272 0.672665 7.01634 1.11776 8.08182C1.56285 9.14731 2.31415 10.0567 3.2765 10.6949C4.23885 11.3331 5.36895 11.6712 6.52366 11.6666C7.10858 11.6648 7.69016 11.5783 8.25033 11.41C8.36554 11.3866 8.4851 11.3987 8.59336 11.4445C8.70161 11.4903 8.79351 11.5677 8.85699 11.6666L13.6637 16.3333C14.0983 16.7644 14.6849 17.0074 15.297 17.01C15.7693 17.0273 16.2358 16.9008 16.6346 16.6472C17.0335 16.3936 17.3459 16.0249 17.5306 15.5898C17.7152 15.1547 17.7634 14.6738 17.6687 14.2108C17.574 13.7477 17.341 13.3243 17.0003 12.9966ZM6.50033 56C7.26637 56 8.02492 55.8491 8.73265 55.5559C9.44038 55.2628 10.0834 54.8331 10.6251 54.2914C11.1668 53.7497 11.5965 53.1067 11.8896 52.3989C12.1828 51.6912 12.3337 50.9327 12.3337 50.1666C12.3318 49.5817 12.2453 49.0001 12.077 48.44C12.0518 48.3281 12.0632 48.211 12.1094 48.1061C12.1556 48.0011 12.2342 47.9137 12.3337 47.8566L16.557 43.5866C16.9933 43.1472 17.2371 42.5526 17.235 41.9334C17.2328 41.3142 16.9847 40.7212 16.5453 40.285C16.106 39.8487 15.5113 39.6048 14.8921 39.607C14.2729 39.6092 13.6799 39.8572 13.2437 40.2966L9.06699 44.4966C8.99476 44.5754 8.90064 44.6308 8.79672 44.6557C8.69279 44.6807 8.58378 44.674 8.48366 44.6366C7.84397 44.4261 7.17369 44.3236 6.50033 44.3333C4.95323 44.3333 3.4695 44.9479 2.37554 46.0418C1.28158 47.1358 0.666995 48.6195 0.666995 50.1666C0.666995 51.7137 1.28158 53.1974 2.37554 54.2914C3.4695 55.3854 4.95323 56 6.50033 56ZM50.8103 21C49.7364 21.0056 48.6844 21.304 47.7675 21.8632C46.8506 22.4224 46.1036 23.2211 45.607 24.1733C45.5646 24.2733 45.4928 24.3581 45.4011 24.4164C45.3094 24.4747 45.2022 24.5039 45.0937 24.5H42.667C42.0482 24.5 41.4547 24.7458 41.0171 25.1834C40.5795 25.621 40.3337 26.2144 40.3337 26.8333C40.3337 27.4521 40.5795 28.0456 41.0171 28.4832C41.4547 28.9208 42.0482 29.1666 42.667 29.1666H45.0003C45.1089 29.1627 45.2161 29.1918 45.3078 29.2502C45.3994 29.3085 45.4712 29.3933 45.5137 29.4933C45.9843 30.4115 46.6902 31.1885 47.5591 31.7449C48.4281 32.3013 49.4291 32.6172 50.46 32.6605C51.4909 32.7038 52.5149 32.4729 53.4274 31.9913C54.34 31.5097 55.1084 30.7946 55.6544 29.9191C56.2004 29.0436 56.5044 28.0389 56.5354 27.0075C56.5664 25.9761 56.3233 24.955 55.8308 24.0483C55.3384 23.1416 54.6142 22.3817 53.7322 21.8461C52.8502 21.3106 51.842 21.0186 50.8103 21ZM14.667 24.5H12.3337C12.2257 24.5008 12.1198 24.4704 12.0288 24.4124C11.9377 24.3545 11.8653 24.2714 11.8203 24.1733C11.3164 23.207 10.5548 22.399 9.61995 21.8389C8.68508 21.2788 7.61341 20.9884 6.52366 21C5.48781 21.002 4.4712 21.2799 3.57831 21.805C2.68542 22.3302 1.94846 23.0836 1.44318 23.9878C0.937903 24.8921 0.682523 25.9146 0.703292 26.9502C0.72406 27.9859 1.02023 28.9973 1.56136 29.8806C2.10248 30.7639 2.86905 31.4871 3.78227 31.976C4.6955 32.4649 5.72243 32.7018 6.75754 32.6624C7.79264 32.6229 8.79858 32.3086 9.67195 31.7516C10.5453 31.1947 11.2546 30.4152 11.727 29.4933C11.7772 29.379 11.8642 29.2848 11.9741 29.2256C12.0841 29.1664 12.2106 29.1457 12.3337 29.1666H14.667C15.2858 29.1666 15.8793 28.9208 16.3169 28.4832C16.7545 28.0456 17.0003 27.4521 17.0003 26.8333C17.0003 26.2144 16.7545 25.621 16.3169 25.1834C15.8793 24.7458 15.2858 24.5 14.667 24.5Z" fill="#1B1B1B"/>
</g>
<defs>
<clipPath id="clip0_473_63">
<rect width="56" height="56" fill="white" transform="translate(0.666992)"/>
</clipPath>
</defs>
</svg>
