<svg width="56" height="56" viewBox="0 0 56 56" fill="none" xmlns="http://www.w3.org/2000/svg">
<g clip-path="url(#clip0_471_55)">
<path fill-rule="evenodd" clip-rule="evenodd" d="M34.8569 0.159912C35.6526 0.159912 36.4156 0.475983 36.9782 1.03859C37.5408 1.6012 37.8569 2.36426 37.8569 3.15991V7.91191H31.8569V3.15991C31.8569 2.36426 32.173 1.6012 32.7356 1.03859C33.2982 0.475983 34.0613 0.159912 34.8569 0.159912ZM24.1369 7.91191V3.15991C24.1369 2.36426 23.8208 1.6012 23.2582 1.03859C22.6956 0.475983 21.9326 0.159912 21.1369 0.159912C20.3413 0.159912 19.5782 0.475983 19.0156 1.03859C18.453 1.6012 18.1369 2.36426 18.1369 3.15991V7.91191H24.1369ZM8.00091 18.0559H3.12891C2.33326 18.0559 1.57019 18.372 1.00759 18.9346C0.444977 19.4972 0.128906 20.2603 0.128906 21.0559C0.128906 21.8516 0.444977 22.6146 1.00759 23.1772C1.57019 23.7398 2.33326 24.0559 3.12891 24.0559H8.00091V18.0559ZM8.00091 31.7759H3.12891C2.33326 31.7759 1.57019 32.092 1.00759 32.6546C0.444977 33.2172 0.128906 33.9803 0.128906 34.7759C0.128906 35.5716 0.444977 36.3346 1.00759 36.8972C1.57019 37.4598 2.33326 37.7759 3.12891 37.7759H8.00091V31.7759ZM18.1409 47.9079V52.8399C18.1409 53.6356 18.457 54.3986 19.0196 54.9612C19.5822 55.5238 20.3453 55.8399 21.1409 55.8399C21.9366 55.8399 22.6996 55.5238 23.2622 54.9612C23.8248 54.3986 24.1409 53.6356 24.1409 52.8399V47.9079H18.1409ZM31.8609 47.9079V52.8399C31.8609 53.6356 32.177 54.3986 32.7396 54.9612C33.3022 55.5238 34.0653 55.8399 34.8609 55.8399C35.6566 55.8399 36.4196 55.5238 36.9822 54.9612C37.5448 54.3986 37.8609 53.6356 37.8609 52.8399V47.9079H31.8609ZM48.0009 37.7719H52.8769C53.6726 37.7719 54.4356 37.4558 54.9982 36.8932C55.5608 36.3306 55.8769 35.5676 55.8769 34.7719C55.8769 33.9763 55.5608 33.2132 54.9982 32.6506C54.4356 32.088 53.6726 31.7719 52.8769 31.7719H47.9969V37.7719H48.0009ZM48.0009 24.0519H52.8769C53.6726 24.0519 54.4356 23.7358 54.9982 23.1732C55.5608 22.6106 55.8769 21.8476 55.8769 21.0519C55.8769 20.2563 55.5608 19.4932 54.9982 18.9306C54.4356 18.368 53.6726 18.0519 52.8769 18.0519H47.9969V24.0519H48.0009Z" fill="#0A7479"/>
<path fill-rule="evenodd" clip-rule="evenodd" d="M13.9961 7.91187C12.4048 7.91187 10.8787 8.54401 9.75345 9.66922C8.62823 10.7944 7.99609 12.3206 7.99609 13.9119V41.9119C7.99609 43.5032 8.62823 45.0293 9.75345 46.1545C10.8787 47.2797 12.4048 47.9119 13.9961 47.9119H41.9961C43.5874 47.9119 45.1135 47.2797 46.2387 46.1545C47.364 45.0293 47.9961 43.5032 47.9961 41.9119V13.9119C47.9961 12.3206 47.364 10.7944 46.2387 9.66922C45.1135 8.54401 43.5874 7.91187 41.9961 7.91187H13.9961Z" fill="#66FF91"/>
<path fill-rule="evenodd" clip-rule="evenodd" d="M30.9842 18.16C30.2522 14.948 25.6762 14.968 24.9722 18.184L24.9442 18.304L24.8962 18.532C24.5374 20.1412 23.7086 21.6075 22.515 22.7449C21.3214 23.8822 19.8168 24.6393 18.1922 24.92C14.8402 25.504 14.8442 30.316 18.1922 30.9C19.8223 31.1825 21.3312 31.9446 22.526 33.0889C23.7209 34.2331 24.5475 35.7076 24.9002 37.324L24.9722 37.636C25.6762 40.852 30.2522 40.872 30.9842 37.664L31.0642 37.296C31.4345 35.6858 32.2714 34.2205 33.4703 33.0836C34.6691 31.9466 36.1766 31.1885 37.8042 30.904C41.1602 30.32 41.1602 25.504 37.8042 24.916C36.1863 24.6324 34.687 23.8807 33.4919 22.7538C32.2968 21.627 31.4583 20.1745 31.0802 18.576L31.0162 18.296L30.9842 18.16Z" fill="#0A7479"/>
</g>
<defs>
<clipPath id="clip0_471_55">
<rect width="56" height="56" fill="white"/>
</clipPath>
</defs>
</svg>
