<svg width="57" height="56" viewBox="0 0 57 56" fill="none" xmlns="http://www.w3.org/2000/svg">
<g clip-path="url(#clip0_471_39)">
<path fill-rule="evenodd" clip-rule="evenodd" d="M50.8598 21.344C50.3005 21.0511 49.6631 20.9422 49.0383 21.0327C48.4134 21.1232 47.8331 21.4085 47.3798 21.848L30.5878 38.128L23.3158 31.744C22.739 31.2374 21.9899 30.9712 21.2228 31.0002C20.4556 31.0292 19.7287 31.3512 19.1918 31.9L2.19984 49.252C1.65024 49.8114 1.34154 50.5638 1.33984 51.348V52.396C1.33984 54.052 2.68384 55.396 4.33984 55.396H52.2478C53.8558 55.396 56.2838 54.128 56.3518 52.52V26.168C56.3756 25.6007 56.2378 25.0383 55.9546 24.5462C55.6713 24.0541 55.2543 23.6525 54.7518 23.388L50.8598 21.344Z" fill="#66FF91"/>
<path fill-rule="evenodd" clip-rule="evenodd" d="M50.7392 15.116C51.141 15.5182 51.6489 15.7979 52.2036 15.9226C52.7583 16.0473 53.337 16.0118 53.8723 15.8202C54.4076 15.6286 54.8774 15.2889 55.2271 14.8406C55.5767 14.3923 55.7918 13.8538 55.8472 13.288C56.2072 9.63999 56.2112 7.53599 55.8472 4.01999C55.7755 3.33514 55.4705 2.6958 54.9832 2.20926C54.4959 1.72272 53.8561 1.41862 53.1712 1.34799C49.6552 0.979988 47.5552 0.983988 43.9032 1.34799C43.3385 1.40467 42.8015 1.62037 42.3544 1.97004C41.9074 2.3197 41.5688 2.78899 41.3778 3.32342C41.1868 3.85784 41.1513 4.43548 41.2755 4.98926C41.3996 5.54304 41.6783 6.05025 42.0792 6.45199L44.2872 8.65999L29.6192 23.328L23.2192 16.924C22.6567 16.3622 21.8942 16.0466 21.0992 16.0466C20.3042 16.0466 19.5417 16.3622 18.9792 16.924L1.59117 34.3C1.04495 34.8661 0.742922 35.624 0.750126 36.4106C0.75733 37.1972 1.07319 37.9495 1.62968 38.5054C2.18617 39.0614 2.93876 39.3766 3.72536 39.383C4.51195 39.3895 5.26962 39.0867 5.83517 38.54L21.0912 23.288L27.4992 29.692C28.0617 30.2538 28.8242 30.5693 29.6192 30.5693C30.4142 30.5693 31.1767 30.2538 31.7392 29.692L48.5312 12.904L50.7392 15.116Z" fill="#0A7479"/>
<path fill-rule="evenodd" clip-rule="evenodd" d="M20.5 55.396V31.116C20.9843 30.9755 21.4963 30.9595 21.9885 31.0692C22.4806 31.179 22.9372 31.411 23.316 31.744L30.588 38.128L40.856 28.168V55.396H20.5Z" fill="#0A7479"/>
</g>
<defs>
<clipPath id="clip0_471_39">
<rect width="56" height="56" fill="white" transform="translate(0.5)"/>
</clipPath>
</defs>
</svg>
