<svg width="56" height="56" viewBox="0 0 56 56" fill="none" xmlns="http://www.w3.org/2000/svg">
<path fill-rule="evenodd" clip-rule="evenodd" d="M28.0015 16.3333C30.0127 16.3333 31.9416 15.5343 33.3637 14.1122C34.7859 12.69 35.5848 10.7612 35.5848 8.74996C35.5848 6.73873 34.7859 4.80988 33.3637 3.38773C31.9416 1.96558 30.0127 1.16663 28.0015 1.16663C25.9903 1.16663 24.0614 1.96558 22.6393 3.38773C21.2171 4.80988 20.4182 6.73873 20.4182 8.74996C20.4182 10.7612 21.2171 12.69 22.6393 14.1122C24.0614 15.5343 25.9903 16.3333 28.0015 16.3333ZM20.7612 18.2781C22.3793 18.1766 24.7547 18.0833 28.0015 18.0833C31.2472 18.0833 33.6225 18.1766 35.2418 18.2781C37.1668 18.3995 38.8795 19.5055 39.6868 21.2881C40.7535 23.6449 41.5557 26.1127 42.0785 28.6463C42.544 30.9423 40.7637 32.928 38.5038 33.026C37.8894 33.0532 37.2084 33.0796 36.461 33.1053L35.7855 42.217C35.6478 44.0906 34.2397 45.6528 32.3333 45.8453C31.9344 45.8857 31.5349 45.9214 31.1352 45.9526C30.9049 45.9697 30.6735 45.9404 30.4547 45.8665C30.2359 45.7926 30.0342 45.6755 29.8614 45.5223C29.6887 45.369 29.5484 45.1826 29.449 44.9742C29.3496 44.7658 29.2929 44.5395 29.2825 44.3088L28.9325 37.3041C28.925 37.1545 28.8603 37.0135 28.7517 36.9104C28.6431 36.8072 28.4989 36.7498 28.3492 36.75H27.6527C27.5029 36.7498 27.3588 36.8072 27.2502 36.9104C27.1416 37.0135 27.0768 37.1545 27.0693 37.3041L26.7193 44.3088C26.709 44.5396 26.6525 44.766 26.5532 44.9746C26.4538 45.1831 26.3136 45.3696 26.1408 45.523C25.968 45.6764 25.7663 45.7936 25.5474 45.8676C25.3285 45.9416 25.0971 45.9709 24.8667 45.9538C24.4451 45.9196 24.0457 45.8834 23.6685 45.8453C21.7633 45.6528 20.3552 44.0906 20.2163 42.217L19.5408 33.1053C18.7934 33.0796 18.1124 33.0532 17.498 33.026C15.2382 32.928 13.4578 30.9423 13.9233 28.6463C14.4462 26.1127 15.2483 23.6449 16.315 21.2881C17.1223 19.5055 18.8362 18.3995 20.7612 18.2781ZM15.2067 42.364C15.8031 42.1984 16.3093 41.8027 16.614 41.264C16.9186 40.7252 16.9968 40.0874 16.8312 39.491C16.6657 38.8946 16.27 38.3884 15.7312 38.0838C15.1925 37.7791 14.5547 37.7009 13.9583 37.8665C11.5083 38.5455 9.33716 39.4391 7.72133 40.5615C6.17199 41.6406 4.66699 43.2763 4.66699 45.5011C4.66699 47.4891 5.87799 49.0116 7.20683 50.0581C8.56016 51.1256 10.3767 51.9855 12.4137 52.6645C16.5087 54.0283 22.02 54.8333 28.0003 54.8333C33.9807 54.8333 39.492 54.0283 43.587 52.6633C45.6228 51.9843 47.4393 51.1245 48.7938 50.057C50.1238 49.0116 51.3337 47.4891 51.3337 45.5011C51.3337 43.2763 49.8298 41.6406 48.277 40.5615C46.6623 39.4391 44.49 38.5455 42.04 37.8665C41.4436 37.7012 40.806 37.7797 40.2674 38.0846C39.7289 38.3895 39.3335 38.8958 39.1682 39.4922C39.003 40.0886 39.0815 40.7262 39.3864 41.2648C39.6912 41.8033 40.1976 42.1987 40.794 42.364C42.9768 42.9695 44.5973 43.6858 45.6147 44.394C46.1187 44.744 46.401 45.0415 46.5457 45.2515C46.592 45.3135 46.6294 45.3819 46.6565 45.4545C46.6682 45.4871 46.667 45.5 46.667 45.5011C46.6686 45.5027 46.6662 45.5144 46.66 45.5361C46.6416 45.5907 46.6165 45.6428 46.5853 45.6913C46.4862 45.8523 46.2843 46.095 45.9052 46.3925C45.1352 46.9991 43.8752 47.649 42.1112 48.237C38.6077 49.4048 33.6178 50.1678 28.0003 50.1678C22.3828 50.1678 17.393 49.4048 13.8895 48.237C12.1243 47.649 10.8655 47.0003 10.0943 46.3936C9.71633 46.095 9.51449 45.8523 9.41533 45.6913C9.38415 45.6428 9.35907 45.5907 9.34066 45.5361C9.33654 45.5249 9.33418 45.5131 9.33366 45.5011C9.33366 45.4988 9.33366 45.486 9.34533 45.4545C9.37209 45.3819 9.40901 45.3136 9.45499 45.2515C9.59966 45.0415 9.88199 44.744 10.386 44.394C11.4045 43.6858 13.0227 42.9695 15.2067 42.364Z" fill="#1B1B1B"/>
</svg>
