<svg width="21" height="21" viewBox="0 0 21 21" fill="none" xmlns="http://www.w3.org/2000/svg">
<path d="M5.98292 4.52306C5.9718 4.86767 5.87175 5.17893 5.68277 5.45684C5.49379 5.73475 5.24367 5.93763 4.93241 6.06547C4.62115 6.19331 4.29878 6.22388 3.96528 6.15718C3.63179 6.09048 3.34554 5.93485 3.10654 5.69029C2.86753 5.44573 2.72024 5.1567 2.66466 4.8232C2.60908 4.48971 2.64798 4.16733 2.78138 3.85607C2.91478 3.54481 3.12599 3.29747 3.41502 3.11405C3.70405 2.93063 4.02086 2.84448 4.36547 2.85559C4.81013 2.86671 5.19087 3.03346 5.50769 3.35583C5.82451 3.67821 5.98292 4.06729 5.98292 4.52306ZM6.03294 7.42445H2.69801V17.8628H6.03294V7.42445ZM11.3021 7.42445H7.98388V17.8628H11.2688V12.3935C11.2688 11.8043 11.4022 11.3041 11.669 10.8928C11.9247 10.5148 12.2526 10.2536 12.6528 10.1091C13.053 9.96456 13.4532 9.95344 13.8534 10.0757C14.2536 10.198 14.5759 10.4426 14.8205 10.8094C15.0984 11.2318 15.2374 11.7599 15.2374 12.3935V17.8628H18.5389V11.2596C18.5389 10.2814 18.3277 9.4532 17.9053 8.7751C17.5385 8.18593 17.0271 7.74127 16.3712 7.44113C15.7709 7.18545 15.1206 7.07428 14.4203 7.10763C13.7422 7.14098 13.1141 7.31051 12.5361 7.61621C11.958 7.92191 11.5356 8.32488 11.2688 8.82512L11.3021 7.42445Z" fill="#9CA3AF"/>
</svg>
