<svg width="40" height="41" viewBox="0 0 40 41" fill="none" xmlns="http://www.w3.org/2000/svg">
<path d="M26.6666 18.806L29.9999 22.1393L36.6666 15.4727M26.6666 35.4727V32.1393C26.6666 30.3712 25.9642 28.6755 24.714 27.4253C23.4637 26.175 21.768 25.4727 19.9999 25.4727H9.99992C8.23181 25.4727 6.53612 26.175 5.28587 27.4253C4.03563 28.6755 3.33325 30.3712 3.33325 32.1393V35.4727M21.6666 12.1393C21.6666 15.8212 18.6818 18.806 14.9999 18.806C11.318 18.806 8.33325 15.8212 8.33325 12.1393C8.33325 8.45742 11.318 5.47266 14.9999 5.47266C18.6818 5.47266 21.6666 8.45742 21.6666 12.1393Z" stroke="black" stroke-width="1.5" stroke-linecap="round" stroke-linejoin="round"/>
</svg>
